<svg xmlns="http://www.w3.org/2000/svg" xmlns:xlink="http://www.w3.org/1999/xlink" width="100.0" height="100.0" viewBox="15.84048504 45.47700904 7.325638919999999 3.3709709199999978" preserveAspectRatio="xMinYMin meet"><g transform="matrix(1,0,0,-1,0,94.32498899999999)"><path fill-rule="evenodd" fill="#66cc99" stroke="#555555" stroke-width="0.1465127784" opacity="0.6" d="M 18.81702,45.912964 L 18.807499,45.902771 L 18.779999,45.894722 L 18.723331,45.909439 L 18.715553,45.913605 L 18.622219,45.856941 L 18.614719,45.845833 L 18.601665,45.830276 L 18.595276,45.825554 L 18.559444,45.801666 L 18.551666,45.798332 L 18.443333,45.752777 L 18.424164,45.749161 L 18.407497,45.748329 L 18.335831,45.754166 L 18.329441,45.754715 L 18.26083,45.762497 L 18.250553,45.764442 L 18.242775,45.768326 L 18.238052,45.773888 L 18.230831,45.778328 L 18.220833,45.781105 L 18.201942,45.783333 L 18.189163,45.784439 L 18.153332,45.787216 L 18.006386,45.786942 L 17.880833,45.783882 L 17.669441,45.834999 L 17.66,45.838333 L 17.657219,45.840828 L 17.652695,45.853134 L 17.649441,45.877495 L 17.640274,45.893051 L 17.62611,45.90583 L 17.591663,45.93222 L 17.585278,45.936943 L 17.576664,45.940552 L 17.458611,45.954437 L 17.427776,45.952499 L 17.432858,45.945427 L 17.434166,45.943604 L 17.434719,45.93972 L 17.431664,45.937218 L 17.423332,45.934441 L 17.418053,45.934715 L 17.389442,45.938049 L 17.358608,45.949997 L 17.351109,45.953331 L 17.311386,45.975273 L 17.256943,46.01722 L 17.255554,46.020554 L 17.25861,46.023048 L 17.254719,46.053329 L 17.239441,46.083611 L 17.23,46.097221 L 17.185555,46.151939 L 17.179996,46.157219 L 17.157497,46.177773 L 17.153889,46.179993 L 17.149719,46.181664 L 17.040276,46.214165 L 16.973053,46.233604 L 16.937771,46.249451 L 16.91972,46.259995 L 16.892776,46.282494 L 16.889999,46.284996 L 16.880577,46.304504 L 16.879025,46.308571 L 16.878887,46.337494 L 16.87833,46.34111 L 16.873886,46.346939 L 16.866108,46.355827 L 16.840553,46.369995 L 16.801388,46.391388 L 16.66111,46.465553 L 16.628609,46.474998 L 16.607872,46.476234 L 16.532497,46.507774 L 16.529442,46.510277 L 16.408607,46.658882 L 16.385555,46.70166 L 16.375328,46.722771 L 16.364998,46.719162 L 16.359444,46.718887 L 16.356388,46.721382 L 16.326385,46.75444 L 16.324165,46.757217 L 16.313889,46.785553 L 16.313889,46.793884 L 16.315277,46.797775 L 16.318886,46.799995 L 16.337219,46.809166 L 16.350555,46.836937 L 16.350555,46.84111 L 16.348888,46.844444 L 16.346107,46.846939 L 16.303055,46.867775 L 16.293331,46.870827 L 16.269722,46.874443 L 16.231941,46.876663 L 16.226944,46.875832 L 16.191666,46.86972 L 16.180832,46.863609 L 16.175831,46.862495 L 16.145554,46.85833 L 16.140831,46.85833 L 16.136387,46.859993 L 16.111805,46.86972 L 16.136108,46.877777 L 16.139721,46.879997 L 16.253609,46.958328 L 16.276665,46.988052 L 16.302776,47.011383 L 16.346943,47.009995 L 16.412498,47.007774 L 16.445,47.004715 L 16.481388,47.000549 L 16.497776,47.00222 L 16.506943,47.004715 L 16.510555,47.00666 L 16.510555,47.009995 L 16.505554,47.114998 L 16.466942,47.146942 L 16.461666,47.146385 L 16.456108,47.146942 L 16.452499,47.148888 L 16.421944,47.205826 L 16.420555,47.20916 L 16.420555,47.213333 L 16.444721,47.244438 L 16.469166,47.257774 L 16.47361,47.259438 L 16.477219,47.261383 L 16.491665,47.279999 L 16.491108,47.283882 L 16.456387,47.368889 L 16.450554,47.407219 L 16.450554,47.41111 L 16.451942,47.415276 L 16.454998,47.41777 L 16.459164,47.419167 L 16.470833,47.419716 L 16.482777,47.418053 L 16.592499,47.425278 L 16.655205,47.458153 L 16.705276,47.521111 L 16.713886,47.543884 L 16.668888,47.611664 L 16.663887,47.617218 L 16.648888,47.629715 L 16.645275,47.631943 L 16.636665,47.63472 L 16.630833,47.635826 L 16.624722,47.635826 L 16.602497,47.628609 L 16.590832,47.629166 L 16.493053,47.64666 L 16.44833,47.659721 L 16.429443,47.666107 L 16.425831,47.668327 L 16.426941,47.671387 L 16.450554,47.698051 L 16.555832,47.756104 L 16.561386,47.75666 L 16.612221,47.759163 L 16.635555,47.760277 L 16.715832,47.734718 L 16.723331,47.730553 L 16.725555,47.727493 L 16.729164,47.713051 L 16.734444,47.703331 L 16.737221,47.700829 L 16.7575,47.686943 L 16.761944,47.685272 L 16.768608,47.684715 L 16.824444,47.683884 L 16.910831,47.690826 L 16.955276,47.694717 L 17.053886,47.709442 L 17.071663,47.728607 L 17.068607,47.768326 L 17.058609,47.789444 L 17.054996,47.799721 L 17.054443,47.847221 L 17.060555,47.876938 L 17.108055,47.971382 L 17.146942,48.0 L 17.166386,48.012497 L 17.176388,48.01944 L 17.180832,48.021111 L 17.19083,48.023048 L 17.236664,48.025833 L 17.241713,48.025551 L 17.251656,48.024994 L 17.254166,48.016106 L 17.26083,48.007217 L 17.264442,48.004997 L 17.273331,48.001663 L 17.311943,47.998055 L 17.335831,47.998329 L 17.340553,47.997498 L 17.355553,47.988884 L 17.411884,47.944748 L 17.442219,47.916664 L 17.447498,47.91111 L 17.448887,47.907776 L 17.457775,47.895828 L 17.466389,47.888329 L 17.485867,47.877968 L 17.712219,47.770554 L 17.784409,47.746803 L 17.790161,47.746056 L 17.896942,47.747551 L 17.901386,47.749161 L 17.916386,47.75222 L 17.976109,47.763611 L 18.086109,47.759438 L 18.119164,47.756943 L 18.131664,47.755272 L 18.195831,47.747772 L 18.297222,47.737221 L 18.312222,47.737778 L 18.337498,47.740829 L 18.378609,47.747215 L 18.41333,47.753883 L 18.446941,47.766937 L 18.451664,47.767776 L 18.540833,47.767494 L 18.597221,47.763054 L 18.636944,47.759163 L 18.655277,47.758606 L 18.67083,47.760826 L 18.675278,47.762497 L 18.690552,47.770271 L 18.720554,47.78611 L 18.726944,47.791107 L 18.732498,47.797218 L 18.738609,47.807495 L 18.749729,47.813156 L 18.765831,47.815552 L 18.788055,47.817215 L 18.84972,47.817772 L 18.855831,47.830276 L 18.853611,47.833054 L 18.82,47.855553 L 18.792221,47.86972 L 18.787777,47.871666 L 18.774441,47.873329 L 18.769997,47.874992 L 18.766941,47.877777 L 18.759441,47.90361 L 18.758888,47.907494 L 18.75972,47.921661 L 18.760555,47.926109 L 18.771664,47.965553 L 18.827366,48.036125 L 18.841576,48.047195 L 18.849098,48.051064 L 18.904503,48.057693 L 18.910069,48.058258 L 18.965675,48.059799 L 18.989799,48.067101 L 19.00127,48.068954 L 19.041714,48.070641 L 19.13945,48.061676 L 19.208336,48.059448 L 19.460548,48.085831 L 19.472218,48.087219 L 19.476383,48.089165 L 19.480553,48.095551 L 19.494442,48.127495 L 19.498608,48.138329 L 19.501663,48.150276 L 19.50861,48.17305 L 19.524166,48.205826 L 19.532513,48.210861 L 19.540016,48.213196 L 19.630554,48.233887 L 19.644444,48.233887 L 19.66222,48.231941 L 19.754997,48.209442 L 19.783607,48.201111 L 19.787777,48.199165 L 19.791111,48.196938 L 19.7925,48.193054 L 19.788887,48.181664 L 19.90361,48.131943 L 19.907776,48.130272 L 19.912498,48.129715 L 19.91861,48.129997 L 19.937775,48.135277 L 19.941944,48.137215 L 19.963608,48.150276 L 19.974442,48.156662 L 20.004997,48.172775 L 20.015274,48.174995 L 20.05933,48.176308 L 20.09333,48.198326 L 20.140553,48.226105 L 20.235554,48.274994 L 20.276386,48.256104 L 20.280277,48.254166 L 20.286663,48.253883 L 20.291943,48.254715 L 20.299721,48.258606 L 20.317219,48.269722 L 20.340832,48.28611 L 20.359165,48.300278 L 20.366943,48.308884 L 20.400555,48.355553 L 20.40361,48.362778 L 20.405277,48.371109 L 20.411942,48.394165 L 20.416386,48.405273 L 20.435833,48.433609 L 20.443607,48.442215 L 20.458611,48.455276 L 20.499443,48.483059 L 20.500832,48.50444 L 20.539719,48.536942 L 20.645275,48.559998 L 20.660553,48.563332 L 20.713333,48.56916 L 20.811665,48.57666 L 20.818607,48.576385 L 20.830276,48.574997 L 20.839165,48.571663 L 20.847775,48.563606 L 20.869999,48.550827 L 20.940277,48.526382 L 20.949718,48.523605 L 20.955276,48.522499 L 21.084442,48.513611 L 21.153332,48.511108 L 21.253887,48.522217 L 21.308712,48.54805 L 21.43111,48.576111 L 21.442776,48.575272 L 21.447777,48.573883 L 21.507221,48.548882 L 21.614166,48.498329 L 21.616665,48.495552 L 21.620552,48.488884 L 21.621666,48.485275 L 21.622776,48.476944 L 21.622776,48.46833 L 21.628052,48.44944 L 21.712776,48.361382 L 21.718609,48.356384 L 21.726665,48.352493 L 21.731388,48.351105 L 21.777496,48.340828 L 21.784443,48.340553 L 21.824165,48.340271 L 21.828331,48.342216 L 21.835831,48.351105 L 21.845276,48.358604 L 21.848888,48.361382 L 21.853054,48.363052 L 21.862778,48.365555 L 21.935833,48.379166 L 21.964996,48.381943 L 22.029442,48.387497 L 22.056664,48.386665 L 22.073055,48.383606 L 22.085831,48.378052 L 22.096107,48.376389 L 22.101665,48.37722 L 22.110832,48.380272 L 22.150555,48.408607 L 22.151442,48.411919 L 22.171715,48.409058 L 22.205551,48.41777 L 22.217216,48.418602 L 22.228882,48.416939 L 22.268887,48.407211 L 22.271385,48.40416 L 22.271111,48.400543 L 22.269444,48.396942 L 22.270275,48.359993 L 22.347775,48.274994 L 22.378609,48.245544 L 22.383331,48.244156 L 22.454716,48.243607 L 22.484718,48.250549 L 22.489716,48.251663 L 22.495827,48.251106 L 22.5,48.249355 L 22.504444,48.24749 L 22.507774,48.24527 L 22.574718,48.18721 L 22.597218,48.147774 L 22.598331,48.143883 L 22.60194,48.128601 L 22.602497,48.115829 L 22.604996,48.113052 L 22.611532,48.108433 L 22.621151,48.101639 L 22.630289,48.099052 L 22.643522,48.09531 L 22.650551,48.093323 L 22.670551,48.092216 L 22.680828,48.094154 L 22.697216,48.101387 L 22.737774,48.114441 L 22.78194,48.117493 L 22.788052,48.117767 L 22.79361,48.116661 L 22.797497,48.114716 L 22.84444,48.084717 L 22.846464,48.083221 L 22.85083,48.079994 L 22.879997,48.049721 L 22.882496,48.046944 L 22.886108,48.040276 L 22.88694,48.036659 L 22.886662,48.031937 L 22.881107,48.02166 L 22.859165,47.993889 L 22.894804,47.95454 L 22.782776,47.849159 L 22.782497,47.844719 L 22.780277,47.84166 L 22.774441,47.836388 L 22.65361,47.776382 L 22.634163,47.77166 L 22.612221,47.768608 L 22.594997,47.766937 L 22.557499,47.766106 L 22.546944,47.768051 L 22.503609,47.789719 L 22.5,47.790852 L 22.489441,47.794167 L 22.472775,47.796944 L 22.454441,47.796387 L 22.445274,47.793327 L 22.323055,47.747498 L 22.318886,47.745827 L 22.276943,47.728607 L 22.270554,47.723885 L 22.226387,47.680832 L 22.224163,47.677773 L 22.191944,47.630829 L 22.19083,47.626663 L 22.189838,47.603958 L 22.186386,47.59861 L 22.177219,47.59111 L 22.158607,47.585548 L 22.118008,47.57811 L 22.043053,47.536942 L 22.032497,47.530273 L 22.023888,47.522499 L 22.015274,47.514442 L 22.010277,47.508606 L 22.006107,47.496941 L 22.006664,47.484161 L 22.009998,47.473053 L 22.018608,47.456383 L 22.021942,47.445274 L 22.020554,47.425278 L 22.015553,47.395828 L 22.013054,47.388054 L 22.00972,47.380829 L 22.0075,47.377777 L 22.004719,47.374992 L 21.996387,47.371666 L 21.985554,47.369995 L 21.962498,47.36805 L 21.937222,47.362778 L 21.932499,47.361382 L 21.925552,47.357216 L 21.922497,47.354439 L 21.874165,47.299721 L 21.869164,47.293327 L 21.843052,47.238327 L 21.841663,47.234718 L 21.84111,47.225555 L 21.84333,47.21833 L 21.846943,47.211937 L 21.84861,47.203888 L 21.84861,47.191666 L 21.844719,47.184998 L 21.790833,47.120277 L 21.782219,47.112221 L 21.769997,47.106941 L 21.751389,47.101662 L 21.734997,47.094719 L 21.709999,47.07972 L 21.653889,47.032494 L 21.651108,47.029716 L 21.651665,47.025551 L 21.653332,47.022499 L 21.655502,47.020866 L 21.690277,47.010551 L 21.693607,47.008049 L 21.695274,47.004997 L 21.695831,47.000832 L 21.691944,46.994164 L 21.67083,46.961388 L 21.613331,46.884163 L 21.545555,46.839439 L 21.529163,46.828049 L 21.526386,46.825272 L 21.519722,46.815277 L 21.493053,46.763054 L 21.488052,46.752777 L 21.489166,46.749161 L 21.494999,46.743889 L 21.502777,46.739998 L 21.521664,46.734718 L 21.528053,46.729996 L 21.529163,46.726387 L 21.528332,46.722221 L 21.526943,46.718605 L 21.521942,46.712776 L 21.493889,46.686943 L 21.489407,46.684532 L 21.467499,46.685829 L 21.45472,46.685555 L 21.449997,46.685272 L 21.441944,46.681938 L 21.329441,46.622772 L 21.326664,46.619995 L 21.324718,46.616943 L 21.308887,46.59166 L 21.30722,46.588051 L 21.29361,46.532494 L 21.288887,46.460548 L 21.219166,46.408333 L 21.208332,46.402222 L 21.19722,46.391388 L 21.191387,46.381386 L 21.185276,46.362495 L 21.178608,46.326942 L 21.178055,46.299164 L 21.176666,46.295555 L 21.08083,46.246941 L 21.059444,46.239166 L 21.053608,46.238884 L 21.048332,46.239998 L 21.03611,46.245277 L 20.989719,46.254715 L 20.86861,46.276108 L 20.846386,46.27916 L 20.82972,46.277222 L 20.820274,46.274719 L 20.795898,46.265724 L 20.783054,46.259438 L 20.761387,46.246941 L 20.75333,46.238884 L 20.720554,46.191666 L 20.719997,46.187492 L 20.726955,46.17556 L 20.72583,46.171104 L 20.720554,46.16555 L 20.706387,46.156662 L 20.69589,46.150391 L 20.679443,46.14222 L 20.624722,46.130272 L 20.619442,46.131386 L 20.582775,46.154999 L 20.563332,46.164993 L 20.535275,46.17305 L 20.48695,46.181107 L 20.340275,46.159439 L 20.285275,46.146942 L 20.276665,46.144722 L 20.270832,46.139717 L 20.264442,46.130272 L 20.261024,46.114853 L 20.257774,46.11805 L 20.20472,46.149719 L 20.200832,46.151382 L 20.118332,46.166939 L 20.112221,46.167496 L 19.961109,46.17083 L 19.859722,46.155273 L 19.850277,46.152771 L 19.845833,46.151382 L 19.842499,46.149162 L 19.74472,46.162216 L 19.70372,46.176392 L 19.672775,46.180832 L 19.660275,46.181389 L 19.570553,46.173607 L 19.559998,46.171944 L 19.50861,46.143883 L 19.505833,46.141106 L 19.504444,46.137497 L 19.506386,46.134438 L 19.517498,46.123886 L 19.518887,46.120277 L 19.517498,46.116661 L 19.511387,46.111664 L 19.46722,46.078606 L 19.460552,46.074165 L 19.286388,45.989441 L 19.281666,45.988327 L 19.16111,45.986664 L 19.155277,45.987221 L 19.151386,45.988884 L 19.148609,45.991661 L 19.136387,46.014999 L 19.130554,46.019997 L 19.123886,46.023605 L 19.119164,46.024994 L 19.107498,46.025833 L 19.096386,46.024437 L 19.087776,46.021385 L 19.080555,46.01722 L 19.012775,45.968887 L 19.006664,45.963882 L 18.995552,45.952499 L 18.858887,45.91111 L 18.835831,45.91111 L 18.81702,45.912964 z" /></g></svg>