<svg xmlns="http://www.w3.org/2000/svg" xmlns:xlink="http://www.w3.org/1999/xlink" width="100.0" height="100.0" viewBox="15.300610922607135 44.93765107840619 8.405092882453644 4.449916802971906" preserveAspectRatio="xMinYMin meet"><g transform="matrix(1,0,0,-1,0,94.32521895978428)"><path fill-rule="evenodd" fill="#66cc99" stroke="#555555" stroke-width="0.16810185764907287" opacity="0.6" d="M 16.48509460618717,45.99224648361329 L 16.46775118619929,45.9962692538573 L 16.414867136542583,46.01498664479698 L 16.33949213654258,46.04652664479698 L 16.29586003871879,46.06731634192649 L 16.254439049653588,46.09222162514317 L 16.215616202341383,46.12100978232308 L 16.212561202341384,46.12351278232308 L 16.175233145351832,46.15738029090677 L 16.141504405691386,46.1948337833634 L 16.020669405691386,46.343438783363396 L 16.00083341961774,46.37032749922544 L 15.98895234761347,46.38247591658665 L 15.965592663012352,46.39004426964961 L 15.961148663012352,46.39170726964961 L 15.952417961277575,46.39506785248532 L 15.927835961277577,46.40479485248532 L 15.88332350826214,46.4249771440335 L 15.840994135001338,46.449408835029715 L 15.801252287374306,46.47785648717848 L 15.764477688142422,46.51004829074587 L 15.731021708799531,46.54567666162913 L 15.701204012310976,46.584401180240775 L 15.675309498819168,46.62585184412701 L 15.653585583498655,46.66963260324257 L 15.636239832570087,46.71532514410332 L 15.623437980060288,46.76249288666012 L 15.615302344257815,46.81068515570482 L 15.611910658994306,46.859441486951745 L 15.613295330918444,46.90829602665124 L 15.619443129859059,46.95678198269805 L 15.630295315235895,47.004436084705475 L 15.64574819731019,47.05080301043044 L 15.665654127912504,47.095439736256196 L 15.689822911181606,47.13791977016482 L 15.718023620835252,47.17783722675487 L 15.749986806609254,47.21481070536811 L 15.785407068782934,47.24848693427122 L 15.823945976192054,47.278544146073024 L 15.865235299848392,47.30469515212613 L 15.900489600836531,47.3224614925193 L 15.913042436275688,47.331066895430425 L 15.942987766773728,47.36037764157495 L 15.951396772463411,47.384907432600485 L 15.950554,47.407219 L 15.950554,47.41111 L 15.953424326101999,47.46460847969864 L 15.958030641124195,47.49300680608337 L 15.95376689770115,47.50353779124899 L 15.93994479641803,47.55036684923415 L 15.930756127653789,47.598320780480705 L 15.926288514963785,47.64694229416045 L 15.926584561701986,47.695767733349335 L 15.93164144475349,47.74433149648052 L 15.941410941455862,47.79217047734174 L 15.955799889452608,47.83882848127681 L 15.956909889452609,47.84188848127682 L 15.975031559154147,47.885344606255046 L 15.997160453956088,47.92690350091961 L 16.023100349892566,47.96619664930071 L 16.052621229635548,48.002875626523306 L 16.07623422963555,48.0295396265233 L 16.11638056726729,48.069975880662255 L 16.160866907600752,48.10558184361465 L 16.209115494242628,48.135895090901826 L 16.314393494242626,48.19394809090183 L 16.359789589536668,48.2160685348282 L 16.407185411131543,48.23349712062259 L 16.456097498990374,48.24605606837849 L 16.506026926435567,48.25361727082525 L 16.511580926435567,48.25417327082525 L 16.536796923315094,48.256055011296446 L 16.587631923315097,48.25855801129645 L 16.588377410736484,48.258594159671716 L 16.611711410736483,48.25970815967172 L 16.656189331334282,48.25985104293096 L 16.697828574479722,48.25627072671912 L 16.71127074541112,48.27562245639978 L 16.74160365926082,48.31154874568578 L 16.775177152043355,48.344466894279776 L 16.811694328806198,48.374085802526814 L 16.850581328806197,48.402703802526815 L 16.876604751926862,48.42061594394916 L 16.888569869274946,48.42830613483061 L 16.891268597797275,48.43017948737316 L 16.926033755113227,48.452247985216516 L 16.96249694986922,48.47138094600285 L 17.000410869023256,48.48744859967868 L 17.004854869023255,48.48911959967867 L 17.044811669357962,48.502253878625496 L 17.085730979572766,48.51198348437216 L 17.095728979572765,48.513920484372164 L 17.16050455462279,48.522127520079394 L 17.206338554622793,48.52491252007939 L 17.26454686536029,48.52505494044262 L 17.26959586536029,48.524772940442624 L 17.279621808771378,48.52421130092191 L 17.327024941399845,48.51928088296602 L 17.373743312223233,48.50985963932094 L 17.419352463164504,48.49603316635681 L 17.442369906918586,48.48657982563264 L 17.469562636242287,48.48056788496141 L 17.510940911641992,48.467570291851246 L 17.551037120851564,48.45103568847731 L 17.589549564098505,48.43108848774983 L 17.604549564098505,48.42247448774983 L 17.663927502119463,48.38246393653459 L 17.720258502119464,48.33832793653459 L 17.751562207904158,48.31165223147603 L 17.765581766801436,48.29867298993751 L 17.865093556788125,48.251450259810845 L 17.88243240003013,48.25475730673363 L 17.938507344121053,48.26219511073274 L 17.995063547335956,48.26325159596403 L 18.105063547335956,48.259078595964034 L 18.123742079442653,48.258019739869866 L 18.156797079442654,48.25552473986986 L 18.185414660275192,48.252534414385984 L 18.193816630015377,48.25141123907112 L 18.25073214695515,48.24475881061025 L 18.2891466938119,48.24076129718316 L 18.31206747668038,48.24840260905983 L 18.359489447895353,48.259229825495645 L 18.364212447895355,48.260068825495644 L 18.368740911962753,48.26066577014469 L 18.37918816963758,48.275331505679986 L 18.43489016963758,48.345903505679985 L 18.47493798797492,48.39080019837176 L 18.520088316541838,48.43056184570357 L 18.534298316541836,48.441631845703576 L 18.572414870987988,48.46856453690197 L 18.61287661728376,48.491825849520374 L 18.62039861728376,48.49569484952037 L 18.6608222782539,48.51426185470248 L 18.702736183771314,48.52916254501999 L 18.74580857587713,48.54027897816846 L 18.789698526931403,48.54752316508729 L 18.8451035269314,48.554152165087295 L 18.854007905388784,48.55513671080576 L 18.859573905388785,48.555701710805764 L 18.896217899438852,48.55806611019155 L 18.898984297751365,48.55814277493635 L 18.910063729311045,48.56070234380709 L 18.921534729311045,48.562555343807084 L 18.980432121519414,48.56851959411195 L 19.02087612151941,48.57020659411195 L 19.087385613021624,48.56855073455437 L 19.170394451829488,48.5609366083377 L 19.172923276476546,48.560854817824186 L 19.187857907133413,48.57582176574934 L 19.225464909212306,48.60679689465726 L 19.265908072432552,48.63396481259303 L 19.274255072432553,48.63899981259303 L 19.327609452284378,48.666947106051865 L 19.383937180190614,48.688276150333515 L 19.391440180190614,48.69061115033352 L 19.428620995196724,48.70062922917594 L 19.519158995196722,48.72132022917594 L 19.574503195313387,48.73073537455102 L 19.630554,48.733887 L 19.644444,48.733887 L 19.69885564828363,48.73091755492702 L 19.71663164828363,48.728971554927014 L 19.780057637687822,48.71785693011976 L 19.87283463768782,48.69535793011976 L 19.894786934222786,48.68950321931478 L 19.923396934222787,48.681172219314774 L 19.928699655217507,48.679405095717925 L 20.006764003837034,48.71957823010241 L 20.036647263316862,48.73309551509139 L 20.064799665694988,48.7687720421668 L 20.07257366569499,48.7773780421668 L 20.10463237107208,48.80885311590311 L 20.109595403585754,48.81578213596332 L 20.143056736150115,48.85372048983181 L 20.180180226936503,48.88808363728757 L 20.219067226936506,48.92058563728757 L 20.257411732208396,48.94961936375047 L 20.298368436065978,48.974834572771826 L 20.341558364759383,48.99599794717968 L 20.38658188043468,49.0129136615632 L 20.4330223789963,49.02542519425175 L 20.5385783789963,49.04848119425175 L 20.553950594692264,49.05183576373433 L 20.605676227811085,49.0603114159461 L 20.658456227811083,49.0661394159461 L 20.675307335516596,49.06771195199757 L 20.7736393355166,49.075211951997574 L 20.831456449131373,49.07626814499093 L 20.838398449131372,49.07599314499093 L 20.877664498221694,49.07288496163524 L 20.889333498221696,49.07149696163524 L 20.948453014370383,49.060830503655836 L 21.005866578893833,49.043150765982645 L 21.014755578893833,49.03981676598264 L 21.05987562797691,49.020312995762886 L 21.067758372406107,49.01594134116137 L 21.110688299768984,49.012987303764525 L 21.125317997460556,49.012455758789606 L 21.145342804628115,49.020607410272596 L 21.196980574744796,49.03540622352694 L 21.319378574744796,49.063467223526935 L 21.368121696680156,49.07212760621887 L 21.417482329275636,49.07592525208834 L 21.466976561785728,49.07482293062295 L 21.478642561785726,49.07398393062295 L 21.52803500179893,49.067949280389755 L 21.576583026381577,49.057035094986446 L 21.581584026381577,49.05564609498645 L 21.641620733661547,49.03477844033343 L 21.70106473366155,49.00977744033343 L 21.720901072132033,49.000922735745846 L 21.827846072132033,48.950369735745845 L 21.871529135102577,48.92700628735049 L 21.912685859039435,48.89943483860008 L 21.934814079048518,48.88119524403107 L 21.986510793257377,48.88565050193251 L 21.993312976230484,48.885839019153735 L 22.029539295270464,48.89683108541304 L 22.076887890646145,48.90632944161552 L 22.124893124524835,48.91121177349842 L 22.12510036923531,48.91125525409536 L 22.16997912802749,48.916503036728436 L 22.18164412802749,48.91733503672844 L 22.23481064894321,48.91829233243456 L 22.287778167667984,48.913597939876276 L 22.299444167667982,48.911934939876275 L 22.347024010737123,48.902781016811005 L 22.387029010737123,48.893053016811 L 22.4313116425746,48.88009389827875 L 22.47421113746969,48.86310791660761 L 22.515362182159226,48.84223971695967 L 22.55441435241431,48.81766700376078 L 22.5910350970992,48.78959902744772 L 22.624912570030784,48.75827480258331 L 22.655362880084258,48.724400933781 L 22.689287326536032,48.712162506359654 L 22.693460326536034,48.710411506359655 L 22.697929714506422,48.70853585268923 L 22.740935662839398,48.68802568914159 L 22.781794098112613,48.66351514716892 L 22.785124098112615,48.66129514716892 L 22.835374151379575,48.62299760134266 L 22.846275337700927,48.61354308894696 L 22.885634934219873,48.60815212513028 L 22.891192934219873,48.60704612513028 L 22.93447810499038,48.596406950474226 L 22.976643769857937,48.58195514255027 L 23.017354830180278,48.56380555265339 L 23.021241830180276,48.56186055265339 L 23.066740323471013,48.536033021690656 L 23.11368332347101,48.50603402169065 L 23.141633761260167,48.48680637845712 L 23.148023761260166,48.48208337845712 L 23.180617584951413,48.45581330340512 L 23.210899631724626,48.42690877384178 L 23.240066631724627,48.39663577384178 L 23.251664037187258,48.38418118218683 L 23.254163037187258,48.381404182186834 L 23.29099844409243,48.33525937102713 L 23.32213738115002,48.28509407029288 L 23.325749381150022,48.27842607029287 L 23.34539768032453,48.23789429254244 L 23.361318603685238,48.195758739058434 L 23.373382944617646,48.15236136188045 L 23.374214944617645,48.14874436188045 L 23.382647636345208,48.10203437203752 L 23.386613142829454,48.0547352367471 L 23.38647979653654,48.04295869902975 L 23.388887356664917,48.031231829204486 L 23.393992079340904,47.983022651631146 L 23.394404068673605,47.93454571628364 L 23.39011945166172,47.886256741838544 L 23.38117850684144,47.8386096800024 L 23.36766528563869,47.79205244803332 L 23.34970682222424,47.74702271799095 L 23.32747193929948,47.70394380229871 L 23.30116966103947,47.663220674297165 L 23.271047248112698,47.625236161198195 L 23.237387873249784,47.59034734522896 L 23.161417376602838,47.51888443499981 L 23.152211022016843,47.5074967415972 L 23.11544723422177,47.47063316257213 L 23.109611234221767,47.46536116257213 L 23.074409586718993,47.43636444196646 L 23.036712241619067,47.41069586262888 L 22.99683283567514,47.388568983627266 L 22.87600183567514,47.328562983627265 L 22.824856110288785,47.30662166779754 L 22.77158877809548,47.290500319012644 L 22.75214177809548,47.28577831901264 L 22.703046827392722,47.27642771276124 L 22.681104827392723,47.27337571276124 L 22.660502215152892,47.27094453513307 L 22.64327821515289,47.26927353513307 L 22.60607487102789,47.267059734290214 L 22.56857687102789,47.266228734290216 L 22.559250178306822,47.26649871465599 L 22.54144907859232,47.246572771541786 L 22.50299799857942,47.21162570786976 L 22.493830998579423,47.20412570786976 L 22.470213711135617,47.18667717539003 L 22.467048404090008,47.178556789863535 L 22.46371440409001,47.17133178986354 L 22.440970308939185,47.12780099554227 L 22.414065124548085,47.086711642038594 L 22.411845124548083,47.0836596420386 L 22.387729441515273,47.053083957566095 L 22.361307379999904,47.02447778140816 L 22.358526379999905,47.021692781408156 L 22.32087668336689,46.98763645370166 L 22.29559025135702,46.969054150748285 L 22.28046186191001,46.93966606078401 L 22.27657086191001,46.932998060784016 L 22.25418141392529,46.89804760083235 L 22.228970242468804,46.86507459875967 L 22.175084242468806,46.80035359875967 L 22.132360509235056,46.75509353866077 L 22.12962592692896,46.752536097859995 L 22.1277956183092,46.74902539061696 L 22.1239086183092,46.74235739061695 L 22.112278043228745,46.72338864642627 L 22.091164043228744,46.690612646426274 L 22.0718738905006,46.662784922500556 L 22.0143748905006,46.58555992250056 L 22.005922149275868,46.57518061048079 L 21.995081276536094,46.542930417835095 L 21.993692276536095,46.539314417835094 L 21.970241162794906,46.48733299810037 L 21.94102358624149,46.4383599855967 L 21.906419611768502,46.393032425724 L 21.901418611768502,46.387203425724 L 21.860642354830446,46.34496889071888 L 21.832589354830446,46.31913589071888 L 21.800707470814785,46.29214884355024 L 21.76668429425638,46.26791707307951 L 21.743963208272785,46.25444178905871 L 21.73935853380591,46.243579345050605 L 21.716532297546816,46.20147368732873 L 21.68978211894146,46.16174521619618 L 21.659353449440374,46.12475846794303 L 21.637406842808076,46.102761458234724 L 21.62193999220379,46.06811034328786 L 21.595690414269075,46.02275738225663 L 21.56483838712143,45.98040075542054 L 21.529722780963223,45.94150569634881 L 21.490729295979026,45.906499417700005 L 21.4482862259106,45.8757664188353 L 21.402859753795926,45.84964426258307 L 21.307023753795924,45.80103026258307 L 21.251668010659667,45.77703210019723 L 21.230282010659668,45.76925710019723 L 21.182448646262714,45.7545322651055 L 21.133382848366107,45.7446631721999 L 21.08357622712322,45.73974870392979 L 21.077740227123222,45.73946670392979 L 21.035025285621554,45.73922943660011 L 20.99244596987668,45.74263889315138 L 20.988225731477215,45.74334318195863 L 20.98627598063536,45.74200327411581 L 20.972108980635358,45.733115274115804 L 20.96281658294847,45.72742562107939 L 20.95231958294847,45.72115462107939 L 20.91835258027762,45.702607123139494 L 20.90190558027762,45.694436123139496 L 20.86446227651606,45.67771180059177 L 20.825774382153597,45.66411213915998 L 20.786102143531036,45.65372862126213 L 20.731381143531035,45.64178062126213 L 20.67923532717728,45.633252586737235 L 20.626480724839364,45.63027509312263 L 20.5737064816707,45.632881392037206 L 20.52150196216673,45.641042377236104 L 20.516221962166732,45.642156377236105 L 20.4721666943513,45.65356805941375 L 20.461446059272376,45.657414833467854 L 20.43196204106984,45.644980478867716 L 20.384017994029268,45.630216561592064 L 20.33483583783654,45.62033119805878 L 20.28491066071272,45.61542389848508 L 20.234745030439324,45.61554406180759 L 20.18484393530018,45.62069047841187 L 20.135709700657443,45.63081134230896 L 20.087836932333744,45.645804772636154 L 20.041707537702433,45.66551983923253 L 20.035270580277018,45.66907208487938 L 19.993758630766013,45.66998796740142 L 19.972594731907066,45.66674054145383 L 19.963963360617125,45.6641399292652 L 19.917642133790658,45.65484073862829 L 19.87064998969034,45.649955107239634 L 19.82340649880281,45.64952665657638 L 19.776333475770535,45.65355921207055 L 19.738590267955136,45.65859812466755 L 19.737714840004998,45.65801507494851 L 19.679275606479358,45.624542954312 L 19.505111606479357,45.539818954312 L 19.454177278598394,45.51843488752647 L 19.40119485835937,45.50280007973779 L 19.396472858359374,45.50168607973779 L 19.34288061607062,45.49208837717895 L 19.288562553467965,45.48837456471214 L 19.17633819348353,45.486826494847065 L 19.140476686028006,45.47396286199193 L 19.003811686028005,45.432573861991926 L 18.956283449416237,45.420687802662734 L 18.9240946452708,45.41592052616348 L 18.920451904824244,45.4148543291506 L 18.86802372439934,45.402531337863444 L 18.86078687420413,45.401636036892086 L 18.836794098112613,45.385640852831074 L 18.7976099629491,45.36203322814088 L 18.756432172526843,45.342105710283256 L 18.748654172526845,45.33877171028326 L 18.745481642136685,45.33742474592046 L 18.637148642136683,45.29186974592046 L 18.587388583775102,45.273978515475235 L 18.53601731583695,45.261442472821386 L 18.516848315836953,45.257826472821385 L 18.449092460436383,45.24978281479336 L 18.43242546043638,45.24895081479336 L 18.366907770358115,45.249979208751846 L 18.295241770358114,45.255816208751845 L 18.293030926860045,45.25600121427221 L 18.286640926860045,45.25655021427221 L 18.273091275929332,45.25790043842077 L 18.20448027592933,45.265682438420775 L 18.167851735125275,45.27121801382118 L 18.157574735125277,45.27316301382118 L 18.112819919840017,45.28378661551997 L 18.10292656250367,45.287121143270625 L 18.012944222550836,45.286953359451076 L 17.893015471068168,45.28403043463417 L 17.849433286510273,45.284868916010446 L 17.80608975357342,45.289500116115065 L 17.76331430215514,45.29788883579206 L 17.55192230215514,45.34900583579206 L 17.5029473550413,45.363533342514366 L 17.4935063550413,45.36686734251436 L 17.448201147223052,45.385407789879864 L 17.404926082277647,45.408289634166074 L 17.36409596209621,45.435293547399844 L 17.360728412854538,45.438029430629705 L 17.36018029547928,45.438075543178996 L 17.33156929547928,45.441409543179 L 17.28983126663216,45.44807175379573 L 17.248805035407436,45.45823524009915 L 17.208783766736772,45.47182737592599 L 17.177949766736774,45.483775375925994 L 17.155482239673358,45.493116353121934 L 17.14798323967336,45.49645035312193 L 17.109351906804292,45.5156627376259 L 17.06962890680429,45.537604737625905 L 17.037135237113862,45.55719822312824 L 17.006220970155628,45.579199389972665 L 16.95177797015563,45.621146389972665 L 16.912340485486876,45.654936813816555 L 16.876620721531026,45.69263570509317 L 16.845004038524078,45.73383635188646 L 16.832746428532186,45.7538012454851 L 16.768192150911165,45.777498713349424 L 16.732910150911167,45.793345713349424 L 16.685581233398164,45.81770996463121 L 16.667530233398164,45.828253964631216 L 16.63238515733722,45.85080227255735 L 16.59924407234716,45.876204458434614 L 16.57230007234716,45.89870345843461 L 16.558094142359515,45.91102656647949 L 16.555317142359513,45.91352856647949 L 16.520956377044545,45.947642265113075 L 16.490056355613913,45.98491954107417 L 16.48509460618717,45.99224648361329 z" /></g></svg>